<svg id="logo" xmlns="http://www.w3.org/2000/svg" xmlns:xlink="http://www.w3.org/1999/xlink" viewBox="0 0 400 2400"><defs><style>.cls-1{fill:url(#radial-gradient);}.cls-2,.cls-8{fill:#fff;}.cls-3{fill:url(#radial-gradient-2);}.cls-4{fill:url(#New_Gradient_Swatch_1);}.cls-5{fill:url(#linear-gradient);}.cls-6{fill:url(#radial-gradient-3);}.cls-16,.cls-24,.cls-32,.cls-40,.cls-48,.cls-7,.cls-8{stroke:#000;stroke-miterlimit:10;stroke-width:0.25px;}.cls-7{fill:url(#radial-gradient-4);}.cls-17,.cls-25,.cls-33,.cls-41,.cls-49,.cls-9{opacity:0.81;}.cls-9{fill:url(#radial-gradient-5);}.cls-10{fill:url(#radial-gradient-6);}.cls-11{fill:url(#radial-gradient-7);}.cls-12{fill:url(#radial-gradient-8);}.cls-13{fill:url(#New_Gradient_Swatch_1-2);}.cls-14{fill:url(#linear-gradient-2);}.cls-15{fill:url(#radial-gradient-9);}.cls-16{fill:url(#radial-gradient-10);}.cls-17{fill:url(#radial-gradient-11);}.cls-18{fill:url(#radial-gradient-12);}.cls-19{fill:url(#radial-gradient-13);}.cls-20{fill:url(#radial-gradient-14);}.cls-21{fill:url(#New_Gradient_Swatch_1-3);}.cls-22{fill:url(#linear-gradient-3);}.cls-23{fill:url(#radial-gradient-15);}.cls-24{fill:url(#radial-gradient-16);}.cls-25{fill:url(#radial-gradient-17);}.cls-26{fill:url(#radial-gradient-18);}.cls-27{fill:url(#radial-gradient-19);}.cls-28{fill:url(#radial-gradient-20);}.cls-29{fill:url(#New_Gradient_Swatch_1-4);}.cls-30{fill:url(#linear-gradient-4);}.cls-31{fill:url(#radial-gradient-21);}.cls-32{fill:url(#radial-gradient-22);}.cls-33{fill:url(#radial-gradient-23);}.cls-34{fill:url(#radial-gradient-24);}.cls-35{fill:url(#radial-gradient-25);}.cls-36{fill:url(#radial-gradient-26);}.cls-37{fill:url(#New_Gradient_Swatch_1-5);}.cls-38{fill:url(#linear-gradient-5);}.cls-39{fill:url(#radial-gradient-27);}.cls-40{fill:url(#radial-gradient-28);}.cls-41{fill:url(#radial-gradient-29);}.cls-42{fill:url(#radial-gradient-30);}.cls-43{fill:url(#radial-gradient-31);}.cls-44{fill:url(#radial-gradient-32);}.cls-45{fill:url(#New_Gradient_Swatch_1-6);}.cls-46{fill:url(#linear-gradient-6);}.cls-47{fill:url(#radial-gradient-33);}.cls-48{fill:url(#radial-gradient-34);}.cls-49{fill:url(#radial-gradient-35);}.cls-50{fill:url(#radial-gradient-36);}</style><radialGradient id="radial-gradient" cx="200" cy="200" r="183.5" gradientUnits="userSpaceOnUse"><stop offset="0.84" stop-opacity="0.5"/><stop offset="1" stop-color="#777" stop-opacity="0"/></radialGradient><radialGradient id="radial-gradient-2" cx="197" cy="200" r="133" gradientUnits="userSpaceOnUse"><stop offset="0.87" stop-color="#777" stop-opacity="0"/><stop offset="0.93" stop-opacity="0.5"/></radialGradient><linearGradient id="New_Gradient_Swatch_1" x1="200" y1="366.5" x2="200" y2="33.5" gradientUnits="userSpaceOnUse"><stop offset="0" stop-color="#eed8a0"/><stop offset="0.5" stop-color="#b58713"/><stop offset="1" stop-color="#f1e6a5"/></linearGradient><linearGradient id="linear-gradient" x1="200" y1="76.03" x2="200" y2="342.03" gradientUnits="userSpaceOnUse"><stop offset="0" stop-color="#b58713"/><stop offset="0.5" stop-color="#eed8a0"/><stop offset="0.59" stop-color="#f1e6a5"/><stop offset="1" stop-color="#b58713"/></linearGradient><radialGradient id="radial-gradient-3" cx="196" cy="200.75" r="115" gradientUnits="userSpaceOnUse"><stop offset="0.96" stop-opacity="0.5"/><stop offset="1" stop-color="#777" stop-opacity="0.1"/></radialGradient><radialGradient id="radial-gradient-4" cx="200.68" cy="227.98" r="88.97" gradientUnits="userSpaceOnUse"><stop offset="0" stop-color="#e30020"/><stop offset="1" stop-color="#b00c18"/></radialGradient><radialGradient id="radial-gradient-5" cx="200.56" cy="228.48" r="88.97" xlink:href="#radial-gradient-4"/><radialGradient id="radial-gradient-6" cx="200" cy="200.75" r="115" xlink:href="#radial-gradient-2"/><radialGradient id="radial-gradient-7" cy="600" xlink:href="#radial-gradient"/><radialGradient id="radial-gradient-8" cy="600" r="133" xlink:href="#radial-gradient-2"/><linearGradient id="New_Gradient_Swatch_1-2" y1="766.5" x2="200" y2="433.5" xlink:href="#New_Gradient_Swatch_1"/><linearGradient id="linear-gradient-2" x1="200" y1="476.03" x2="200" y2="742.03" xlink:href="#linear-gradient"/><radialGradient id="radial-gradient-9" cy="600.75" r="115" xlink:href="#radial-gradient-3"/><radialGradient id="radial-gradient-10" cx="200.68" cy="627.98" r="88.97" xlink:href="#radial-gradient-4"/><radialGradient id="radial-gradient-11" cx="200.56" cy="628.48" r="88.97" xlink:href="#radial-gradient-4"/><radialGradient id="radial-gradient-12" cx="200" cy="600.75" r="115" xlink:href="#radial-gradient-2"/><radialGradient id="radial-gradient-13" cy="1000" xlink:href="#radial-gradient"/><radialGradient id="radial-gradient-14" cy="1000" r="133" xlink:href="#radial-gradient-2"/><linearGradient id="New_Gradient_Swatch_1-3" y1="1166.5" x2="200" y2="833.5" xlink:href="#New_Gradient_Swatch_1"/><linearGradient id="linear-gradient-3" x1="200" y1="876.03" x2="200" y2="1142.03" xlink:href="#linear-gradient"/><radialGradient id="radial-gradient-15" cy="1000.75" r="115" xlink:href="#radial-gradient-3"/><radialGradient id="radial-gradient-16" cx="200.68" cy="1027.98" r="88.97" xlink:href="#radial-gradient-4"/><radialGradient id="radial-gradient-17" cx="200.56" cy="1028.48" r="88.97" xlink:href="#radial-gradient-4"/><radialGradient id="radial-gradient-18" cx="200" cy="1000.75" r="115" xlink:href="#radial-gradient-2"/><radialGradient id="radial-gradient-19" cy="1400" xlink:href="#radial-gradient"/><radialGradient id="radial-gradient-20" cy="1400" r="133" xlink:href="#radial-gradient-2"/><linearGradient id="New_Gradient_Swatch_1-4" y1="1566.5" x2="200" y2="1233.5" xlink:href="#New_Gradient_Swatch_1"/><linearGradient id="linear-gradient-4" x1="200" y1="1276.03" x2="200" y2="1542.03" xlink:href="#linear-gradient"/><radialGradient id="radial-gradient-21" cy="1400.75" r="115" xlink:href="#radial-gradient-3"/><radialGradient id="radial-gradient-22" cx="200.68" cy="1427.98" r="88.97" xlink:href="#radial-gradient-4"/><radialGradient id="radial-gradient-23" cx="200.56" cy="1428.48" r="88.97" xlink:href="#radial-gradient-4"/><radialGradient id="radial-gradient-24" cx="200" cy="1400.75" r="115" xlink:href="#radial-gradient-2"/><radialGradient id="radial-gradient-25" cy="1800" xlink:href="#radial-gradient"/><radialGradient id="radial-gradient-26" cy="1800" r="133" xlink:href="#radial-gradient-2"/><linearGradient id="New_Gradient_Swatch_1-5" y1="1966.5" x2="200" y2="1633.5" xlink:href="#New_Gradient_Swatch_1"/><linearGradient id="linear-gradient-5" x1="200" y1="1676.03" x2="200" y2="1942.03" xlink:href="#linear-gradient"/><radialGradient id="radial-gradient-27" cy="1800.75" r="115" xlink:href="#radial-gradient-3"/><radialGradient id="radial-gradient-28" cx="200.68" cy="1827.98" r="88.97" xlink:href="#radial-gradient-4"/><radialGradient id="radial-gradient-29" cx="200.56" cy="1828.48" r="88.97" xlink:href="#radial-gradient-4"/><radialGradient id="radial-gradient-30" cx="200" cy="1800.75" r="115" xlink:href="#radial-gradient-2"/><radialGradient id="radial-gradient-31" cy="2200" xlink:href="#radial-gradient"/><radialGradient id="radial-gradient-32" cy="2200" r="133" xlink:href="#radial-gradient-2"/><linearGradient id="New_Gradient_Swatch_1-6" y1="2366.5" x2="200" y2="2033.5" xlink:href="#New_Gradient_Swatch_1"/><linearGradient id="linear-gradient-6" x1="200" y1="2076.03" x2="200" y2="2342.03" xlink:href="#linear-gradient"/><radialGradient id="radial-gradient-33" cy="2200.75" r="115" xlink:href="#radial-gradient-3"/><radialGradient id="radial-gradient-34" cx="200.68" cy="2227.98" r="88.97" xlink:href="#radial-gradient-4"/><radialGradient id="radial-gradient-35" cx="200.56" cy="2228.48" r="88.97" xlink:href="#radial-gradient-4"/><radialGradient id="radial-gradient-36" cx="200" cy="2200.75" r="115" xlink:href="#radial-gradient-2"/></defs><title>Tucks</title><circle id="whiteShadow" class="cls-1" cx="200" cy="200" r="183.5"/><circle id="white" class="cls-2" cx="200" cy="200" r="175"/><path id="inGoldShadow" class="cls-3" d="M197,67A133,133,0,1,0,330,200,133,133,0,0,0,197,67Zm0,254A120,120,0,1,1,317,201,120,120,0,0,1,197,321Z"/><path id="outGold" class="cls-4" d="M200,33.5A166.5,166.5,0,1,0,366.5,200,166.49,166.49,0,0,0,200,33.5ZM200,333A133,133,0,1,1,333,200,133,133,0,0,1,200,333Z"/><path id="inGold" class="cls-5" d="M200,67A133,133,0,1,0,333,200,133,133,0,0,0,200,67Zm0,254A120,120,0,1,1,320,201,120,120,0,0,1,200,321Z"/><g id="inLogo"><path id="inLogoShadow" class="cls-6" d="M196,85.75a115,115,0,0,0-115,115q0,5.42.5,10.7a115,115,0,0,0,229,0q.5-5.28.5-10.7A115,115,0,0,0,196,85.75Z"/><path id="red" class="cls-7" d="M85.5,211.45a115,115,0,0,0,229,0Z"/><path id="white-2" data-name="white" class="cls-8" d="M315,200.75a115,115,0,0,0-230,0q0,5.42.5,10.7h229Q315,206.17,315,200.75Z"/><path id="redTop" class="cls-9" d="M85.38,212a115,115,0,0,0,229,0Z"/><path id="inLogoShades" class="cls-10" d="M200,85.75a115,115,0,0,0-115,115q0,5.42.5,10.7a115,115,0,0,0,229,0q.5-5.28.5-10.7A115,115,0,0,0,200,85.75Z"/><path id="T" d="M133.49,66V113.5H145.8a64.31,64.31,0,0,1,5-11.65,24.3,24.3,0,0,1,5.9-7.12,17.12,17.12,0,0,1,7-3.3,49,49,0,0,1,9.63-.79h15.66v90a34.94,34.94,0,0,1-.68,8,12.36,12.36,0,0,1-1.86,4.31,9.49,9.49,0,0,1-3,2.59,18.53,18.53,0,0,1-4.66,1.71c-1.91.47-4.1.91-6.59,1.32v4.31h56.81V198.6a55.39,55.39,0,0,1-9-2,10.05,10.05,0,0,1-7-7.7,33.64,33.64,0,0,1-.81-8.26v-90h15.79a40.62,40.62,0,0,1,10.25,1,19.15,19.15,0,0,1,6.41,3.25,24.25,24.25,0,0,1,5.65,6.69,68.85,68.85,0,0,1,5.41,12H268V66Z"/></g><circle id="whiteShadow-2" data-name="whiteShadow" class="cls-11" cx="200" cy="600" r="183.5"/><circle id="white-3" data-name="white" class="cls-2" cx="200" cy="600" r="175"/><path id="inGoldShadow-2" data-name="inGoldShadow" class="cls-12" d="M197,467A133,133,0,1,0,330,600,133,133,0,0,0,197,467Zm0,254A120,120,0,1,1,317,601,120,120,0,0,1,197,721Z"/><path id="outGold-2" data-name="outGold" class="cls-13" d="M200,433.5A166.5,166.5,0,1,0,366.5,600,166.49,166.49,0,0,0,200,433.5ZM200,733A133,133,0,1,1,333,600,133,133,0,0,1,200,733Z"/><path id="inGold-2" data-name="inGold" class="cls-14" d="M200,467A133,133,0,1,0,333,600,133,133,0,0,0,200,467Zm0,254A120,120,0,1,1,320,601,120,120,0,0,1,200,721Z"/><g id="inLogo-2" data-name="inLogo"><path id="inLogoShadow-2" data-name="inLogoShadow" class="cls-15" d="M196,485.75a115,115,0,0,0-115,115q0,5.41.5,10.7a115,115,0,0,0,229,0q.5-5.28.5-10.7A115,115,0,0,0,196,485.75Z"/><path id="red-2" data-name="red" class="cls-16" d="M85.5,611.45a115,115,0,0,0,229,0Z"/><path id="white-4" data-name="white" class="cls-8" d="M315,600.75a115,115,0,0,0-230,0q0,5.41.5,10.7h229Q315,606.17,315,600.75Z"/><path id="T-2" data-name="T" d="M133.49,483V530.5H145.8a64.31,64.31,0,0,1,5-11.65,24.3,24.3,0,0,1,5.9-7.12,17.12,17.12,0,0,1,7-3.3,49,49,0,0,1,9.63-.79h15.66v90a34.94,34.94,0,0,1-.68,8,12.36,12.36,0,0,1-1.86,4.31,9.49,9.49,0,0,1-3,2.59,18.53,18.53,0,0,1-4.66,1.71c-1.91.47-4.1.91-6.59,1.32v4.31h56.81V615.6a55.39,55.39,0,0,1-9-2,10.05,10.05,0,0,1-7-7.7,33.64,33.64,0,0,1-.81-8.26v-90h15.79a40.62,40.62,0,0,1,10.25,1,19.15,19.15,0,0,1,6.41,3.25,24.25,24.25,0,0,1,5.65,6.69,68.85,68.85,0,0,1,5.41,12H268V483Z"/><path id="redTop-2" data-name="redTop" class="cls-17" d="M85.38,612a115,115,0,0,0,229,0Z"/><path id="inLogoShades-2" data-name="inLogoShades" class="cls-18" d="M200,485.75a115,115,0,0,0-115,115q0,5.41.5,10.7a115,115,0,0,0,229,0q.5-5.28.5-10.7A115,115,0,0,0,200,485.75Z"/></g><circle id="whiteShadow-3" data-name="whiteShadow" class="cls-19" cx="200" cy="1000" r="183.5"/><circle id="white-5" data-name="white" class="cls-2" cx="200" cy="1000" r="175"/><path id="inGoldShadow-3" data-name="inGoldShadow" class="cls-20" d="M197,867a133,133,0,1,0,133,133A133,133,0,0,0,197,867Zm0,254a120,120,0,1,1,120-120A120,120,0,0,1,197,1121Z"/><path id="outGold-3" data-name="outGold" class="cls-21" d="M200,833.5A166.5,166.5,0,1,0,366.5,1000,166.49,166.49,0,0,0,200,833.5Zm0,299.5a133,133,0,1,1,133-133A133,133,0,0,1,200,1133Z"/><path id="inGold-3" data-name="inGold" class="cls-22" d="M200,867a133,133,0,1,0,133,133A133,133,0,0,0,200,867Zm0,254a120,120,0,1,1,120-120A120,120,0,0,1,200,1121Z"/><g id="inLogo-3" data-name="inLogo"><path id="inLogoShadow-3" data-name="inLogoShadow" class="cls-23" d="M196,885.75a115,115,0,0,0-115,115q0,5.41.5,10.7a115,115,0,0,0,229,0q.5-5.28.5-10.7A115,115,0,0,0,196,885.75Z"/><path id="red-3" data-name="red" class="cls-24" d="M85.5,1011.45a115,115,0,0,0,229,0Z"/><path id="white-6" data-name="white" class="cls-8" d="M315,1000.75a115,115,0,0,0-230,0q0,5.41.5,10.7h229Q315,1006.17,315,1000.75Z"/><path id="T-3" data-name="T" d="M133.49,921V968.5H145.8a64.31,64.31,0,0,1,5-11.65,24.3,24.3,0,0,1,5.9-7.12,17.12,17.12,0,0,1,7-3.3,49,49,0,0,1,9.63-.79h15.66v90a34.94,34.94,0,0,1-.68,8,12.36,12.36,0,0,1-1.86,4.31,9.49,9.49,0,0,1-3,2.59,18.53,18.53,0,0,1-4.66,1.71c-1.91.47-4.1.91-6.59,1.32v4.31h56.81v-4.31a55.39,55.39,0,0,1-9-2,10.05,10.05,0,0,1-7-7.7,33.64,33.64,0,0,1-.81-8.26v-90h15.79a40.62,40.62,0,0,1,10.25,1,19.15,19.15,0,0,1,6.41,3.25,24.25,24.25,0,0,1,5.65,6.69,68.85,68.85,0,0,1,5.41,12H268V921Z"/><path id="redTop-3" data-name="redTop" class="cls-25" d="M85.38,1012a115,115,0,0,0,229,0Z"/><path id="inLogoShades-3" data-name="inLogoShades" class="cls-26" d="M200,885.75a115,115,0,0,0-115,115q0,5.41.5,10.7a115,115,0,0,0,229,0q.5-5.28.5-10.7A115,115,0,0,0,200,885.75Z"/></g><circle id="whiteShadow-4" data-name="whiteShadow" class="cls-27" cx="200" cy="1400" r="183.5"/><circle id="white-7" data-name="white" class="cls-2" cx="200" cy="1400" r="175"/><path id="inGoldShadow-4" data-name="inGoldShadow" class="cls-28" d="M197,1267a133,133,0,1,0,133,133A133,133,0,0,0,197,1267Zm0,254a120,120,0,1,1,120-120A120,120,0,0,1,197,1521Z"/><path id="outGold-4" data-name="outGold" class="cls-29" d="M200,1233.5A166.5,166.5,0,1,0,366.5,1400,166.49,166.49,0,0,0,200,1233.5Zm0,299.5a133,133,0,1,1,133-133A133,133,0,0,1,200,1533Z"/><path id="inGold-4" data-name="inGold" class="cls-30" d="M200,1267a133,133,0,1,0,133,133A133,133,0,0,0,200,1267Zm0,254a120,120,0,1,1,120-120A120,120,0,0,1,200,1521Z"/><g id="inLogo-4" data-name="inLogo"><path id="inLogoShadow-4" data-name="inLogoShadow" class="cls-31" d="M196,1285.75a115,115,0,0,0-115,115q0,5.41.5,10.7a115,115,0,0,0,229,0q.5-5.28.5-10.7A115,115,0,0,0,196,1285.75Z"/><path id="red-4" data-name="red" class="cls-32" d="M85.5,1411.45a115,115,0,0,0,229,0Z"/><path id="white-8" data-name="white" class="cls-8" d="M315,1400.75a115,115,0,0,0-230,0q0,5.41.5,10.7h229Q315,1406.17,315,1400.75Z"/><path id="T-4" data-name="T" d="M133.49,1329v47.51H145.8a64.31,64.31,0,0,1,5-11.65,24.3,24.3,0,0,1,5.9-7.12,17.12,17.12,0,0,1,7-3.3,49,49,0,0,1,9.63-.79h15.66v90a34.94,34.94,0,0,1-.68,8,12.36,12.36,0,0,1-1.86,4.31,9.49,9.49,0,0,1-3,2.59,18.53,18.53,0,0,1-4.66,1.71c-1.91.47-4.1.91-6.59,1.32v4.31h56.81v-4.31a55.39,55.39,0,0,1-9-2,10.05,10.05,0,0,1-7-7.7,33.64,33.64,0,0,1-.81-8.26v-90h15.79a40.62,40.62,0,0,1,10.25,1,19.15,19.15,0,0,1,6.41,3.25,24.25,24.25,0,0,1,5.65,6.69,68.85,68.85,0,0,1,5.41,12H268V1329Z"/><path id="redTop-4" data-name="redTop" class="cls-33" d="M85.38,1412a115,115,0,0,0,229,0Z"/><path id="inLogoShades-4" data-name="inLogoShades" class="cls-34" d="M200,1285.75a115,115,0,0,0-115,115q0,5.41.5,10.7a115,115,0,0,0,229,0q.5-5.28.5-10.7A115,115,0,0,0,200,1285.75Z"/></g><circle id="whiteShadow-5" data-name="whiteShadow" class="cls-35" cx="200" cy="1800" r="183.5"/><circle id="white-9" data-name="white" class="cls-2" cx="200" cy="1800" r="175"/><path id="inGoldShadow-5" data-name="inGoldShadow" class="cls-36" d="M197,1667a133,133,0,1,0,133,133A133,133,0,0,0,197,1667Zm0,254a120,120,0,1,1,120-120A120,120,0,0,1,197,1921Z"/><path id="outGold-5" data-name="outGold" class="cls-37" d="M200,1633.5A166.5,166.5,0,1,0,366.5,1800,166.49,166.49,0,0,0,200,1633.5Zm0,299.5a133,133,0,1,1,133-133A133,133,0,0,1,200,1933Z"/><path id="inGold-5" data-name="inGold" class="cls-38" d="M200,1667a133,133,0,1,0,133,133A133,133,0,0,0,200,1667Zm0,254a120,120,0,1,1,120-120A120,120,0,0,1,200,1921Z"/><g id="inLogo-5" data-name="inLogo"><path id="inLogoShadow-5" data-name="inLogoShadow" class="cls-39" d="M196,1685.75a115,115,0,0,0-115,115q0,5.41.5,10.7a115,115,0,0,0,229,0q.5-5.28.5-10.7A115,115,0,0,0,196,1685.75Z"/><path id="red-5" data-name="red" class="cls-40" d="M85.5,1811.45a115,115,0,0,0,229,0Z"/><path id="white-10" data-name="white" class="cls-8" d="M315,1800.75a115,115,0,0,0-230,0q0,5.41.5,10.7h229Q315,1806.17,315,1800.75Z"/><path id="T-5" data-name="T" d="M133.49,1735v47.51H145.8a64.31,64.31,0,0,1,5-11.65,24.3,24.3,0,0,1,5.9-7.12,17.12,17.12,0,0,1,7-3.3,49,49,0,0,1,9.63-.79h15.66v90a34.94,34.94,0,0,1-.68,8,12.36,12.36,0,0,1-1.86,4.31,9.49,9.49,0,0,1-3,2.59,18.53,18.53,0,0,1-4.66,1.71c-1.91.47-4.1.91-6.59,1.32v4.31h56.81v-4.31a55.39,55.39,0,0,1-9-2,10.05,10.05,0,0,1-7-7.7,33.64,33.64,0,0,1-.81-8.26v-90h15.79a40.62,40.62,0,0,1,10.25,1,19.15,19.15,0,0,1,6.41,3.25,24.25,24.25,0,0,1,5.65,6.69,68.85,68.85,0,0,1,5.41,12H268V1735Z"/><path id="redTop-5" data-name="redTop" class="cls-41" d="M85.38,1812a115,115,0,0,0,229,0Z"/><path id="inLogoShades-5" data-name="inLogoShades" class="cls-42" d="M200,1685.75a115,115,0,0,0-115,115q0,5.41.5,10.7a115,115,0,0,0,229,0q.5-5.28.5-10.7A115,115,0,0,0,200,1685.75Z"/></g><circle id="whiteShadow-6" data-name="whiteShadow" class="cls-43" cx="200" cy="2200" r="183.5"/><circle id="white-11" data-name="white" class="cls-2" cx="200" cy="2200" r="175"/><path id="inGoldShadow-6" data-name="inGoldShadow" class="cls-44" d="M197,2067a133,133,0,1,0,133,133A133,133,0,0,0,197,2067Zm0,254a120,120,0,1,1,120-120A120,120,0,0,1,197,2321Z"/><path id="outGold-6" data-name="outGold" class="cls-45" d="M200,2033.5A166.5,166.5,0,1,0,366.5,2200,166.49,166.49,0,0,0,200,2033.5Zm0,299.5a133,133,0,1,1,133-133A133,133,0,0,1,200,2333Z"/><path id="inGold-6" data-name="inGold" class="cls-46" d="M200,2067a133,133,0,1,0,133,133A133,133,0,0,0,200,2067Zm0,254a120,120,0,1,1,120-120A120,120,0,0,1,200,2321Z"/><g id="inLogo-6" data-name="inLogo"><path id="inLogoShadow-6" data-name="inLogoShadow" class="cls-47" d="M196,2085.75a115,115,0,0,0-115,115q0,5.41.5,10.7a115,115,0,0,0,229,0q.5-5.28.5-10.7A115,115,0,0,0,196,2085.75Z"/><path id="red-6" data-name="red" class="cls-48" d="M85.5,2211.45a115,115,0,0,0,229,0Z"/><path id="white-12" data-name="white" class="cls-8" d="M315,2200.75a115,115,0,0,0-230,0q0,5.41.5,10.7h229Q315,2206.17,315,2200.75Z"/><path id="T-6" data-name="T" d="M133.49,2133v47.51H145.8a64.31,64.31,0,0,1,5-11.65,24.3,24.3,0,0,1,5.9-7.12,17.12,17.12,0,0,1,7-3.3,49,49,0,0,1,9.63-.79h15.66v90a34.94,34.94,0,0,1-.68,8,12.36,12.36,0,0,1-1.86,4.31,9.49,9.49,0,0,1-3,2.59,18.53,18.53,0,0,1-4.66,1.71c-1.91.47-4.1.91-6.59,1.32v4.31h56.81v-4.31a55.39,55.39,0,0,1-9-2,10.05,10.05,0,0,1-7-7.7,33.64,33.64,0,0,1-.81-8.26v-90h15.79a40.62,40.62,0,0,1,10.25,1,19.15,19.15,0,0,1,6.41,3.25,24.25,24.25,0,0,1,5.65,6.69,68.85,68.85,0,0,1,5.41,11.95H268V2133Z"/><path id="redTop-6" data-name="redTop" class="cls-49" d="M85.38,2212a115,115,0,0,0,229,0Z"/><path id="inLogoShades-6" data-name="inLogoShades" class="cls-50" d="M200,2085.75a115,115,0,0,0-115,115q0,5.41.5,10.7a115,115,0,0,0,229,0q.5-5.28.5-10.7A115,115,0,0,0,200,2085.75Z"/></g></svg>