<svg id="logo" xmlns="http://www.w3.org/2000/svg" xmlns:xlink="http://www.w3.org/1999/xlink" viewBox="0 0 400 400"><defs><style>.cls-1{fill:url(#radial-gradient);}.cls-2,.cls-8{fill:#fff;}.cls-3{fill:url(#radial-gradient-2);}.cls-4{fill:url(#New_Gradient_Swatch_1);}.cls-5{fill:url(#linear-gradient);}.cls-6{fill:url(#radial-gradient-3);}.cls-7,.cls-8{stroke:#000;stroke-miterlimit:10;stroke-width:0.25px;}.cls-7{fill:url(#radial-gradient-4);}.cls-9{opacity:0.81;fill:url(#radial-gradient-5);}.cls-10{fill:url(#radial-gradient-6);}</style><radialGradient id="radial-gradient" cx="200" cy="200" r="183.5" gradientUnits="userSpaceOnUse"><stop offset="0.84" stop-opacity="0.5"/><stop offset="1" stop-color="#777" stop-opacity="0"/></radialGradient><radialGradient id="radial-gradient-2" cx="197" cy="200" r="133" gradientUnits="userSpaceOnUse"><stop offset="0.87" stop-color="#777" stop-opacity="0"/><stop offset="0.93" stop-opacity="0.5"/></radialGradient><linearGradient id="New_Gradient_Swatch_1" x1="200" y1="366.5" x2="200" y2="33.5" gradientUnits="userSpaceOnUse"><stop offset="0" stop-color="#eed8a0"/><stop offset="0.5" stop-color="#b58713"/><stop offset="1" stop-color="#f1e6a5"/></linearGradient><linearGradient id="linear-gradient" x1="200" y1="76.03" x2="200" y2="342.03" gradientUnits="userSpaceOnUse"><stop offset="0" stop-color="#b58713"/><stop offset="0.5" stop-color="#eed8a0"/><stop offset="0.59" stop-color="#f1e6a5"/><stop offset="1" stop-color="#b58713"/></linearGradient><radialGradient id="radial-gradient-3" cx="196" cy="200.75" r="115" gradientUnits="userSpaceOnUse"><stop offset="0.96" stop-opacity="0.5"/><stop offset="1" stop-color="#777" stop-opacity="0.1"/></radialGradient><radialGradient id="radial-gradient-4" cx="200.68" cy="227.98" r="88.97" gradientUnits="userSpaceOnUse"><stop offset="0" stop-color="#e30020"/><stop offset="1" stop-color="#b00c18"/></radialGradient><radialGradient id="radial-gradient-5" cx="200.56" cy="228.48" r="88.97" xlink:href="#radial-gradient-4"/><radialGradient id="radial-gradient-6" cx="200" cy="200.75" r="115" xlink:href="#radial-gradient-2"/></defs><title>sportLogo</title><circle id="whiteShadow" class="cls-1" cx="200" cy="200" r="183.5"/><circle id="white" class="cls-2" cx="200" cy="200" r="175"/><path id="inGoldShadow" class="cls-3" d="M197,67A133,133,0,1,0,330,200,133,133,0,0,0,197,67Zm0,254A120,120,0,1,1,317,201,120,120,0,0,1,197,321Z"/><path id="outGold" class="cls-4" d="M200,33.5A166.5,166.5,0,1,0,366.5,200,166.49,166.49,0,0,0,200,33.5ZM200,333A133,133,0,1,1,333,200,133,133,0,0,1,200,333Z"/><path id="inGold" class="cls-5" d="M200,67A133,133,0,1,0,333,200,133,133,0,0,0,200,67Zm0,254A120,120,0,1,1,320,201,120,120,0,0,1,200,321Z"/><g id="inLogo"><path id="inLogoShadow" class="cls-6" d="M196,85.75a115,115,0,0,0-115,115q0,5.42.5,10.7a115,115,0,0,0,229,0q.5-5.28.5-10.7A115,115,0,0,0,196,85.75Z"/><path id="red" class="cls-7" d="M85.5,211.45a115,115,0,0,0,229,0Z"/><path id="white-2" data-name="white" class="cls-8" d="M315,200.75a115,115,0,0,0-230,0q0,5.42.5,10.7h229Q315,206.17,315,200.75Z"/><path id="T" d="M133.49,133V180.5H145.8a64.31,64.31,0,0,1,5-11.65,24.3,24.3,0,0,1,5.9-7.12,17.12,17.12,0,0,1,7-3.3,49,49,0,0,1,9.63-.79h15.66v90a34.94,34.94,0,0,1-.68,8,12.36,12.36,0,0,1-1.86,4.31,9.49,9.49,0,0,1-3,2.59,18.53,18.53,0,0,1-4.66,1.71c-1.91.47-4.1.91-6.59,1.32v4.31h56.81V265.6a55.39,55.39,0,0,1-9-2,10.05,10.05,0,0,1-7-7.7,33.64,33.64,0,0,1-.81-8.26v-90h15.79a40.62,40.62,0,0,1,10.25,1,19.15,19.15,0,0,1,6.41,3.25,24.25,24.25,0,0,1,5.65,6.69,68.85,68.85,0,0,1,5.41,11.95H268V133Z"/><path id="redTop" class="cls-9" d="M85.38,212a115,115,0,0,0,229,0Z"/><path id="inLogoShades" class="cls-10" d="M200,85.75a115,115,0,0,0-115,115q0,5.42.5,10.7a115,115,0,0,0,229,0q.5-5.28.5-10.7A115,115,0,0,0,200,85.75Z"/></g></svg>